<?xml version="1.0" encoding="utf-8"?>
<?xml-stylesheet type="text/css" href="../site/css/custom.css"?>
<!-- Generator: Adobe Illustrator 24.0.0, SVG Export Plug-In . SVG Version: 6.00 Build 0)  -->
<svg version="1.1"
	 id="svg4205" inkscape:version="0.92.4 (5da689c313, 2019-01-14)" sodipodi:docname="logo-vUP.svg" xmlns:cc="http://creativecommons.org/ns#" xmlns:dc="http://purl.org/dc/elements/1.1/" xmlns:inkscape="http://www.inkscape.org/namespaces/inkscape" xmlns:rdf="http://www.w3.org/1999/02/22-rdf-syntax-ns#" xmlns:sodipodi="http://sodipodi.sourceforge.net/DTD/sodipodi-0.dtd" xmlns:svg="http://www.w3.org/2000/svg"
	 xmlns="http://www.w3.org/2000/svg" xmlns:xlink="http://www.w3.org/1999/xlink" x="0px" y="0px" viewBox="0 0 600 600"
	 style="enable-background:new 0 0 600 600;" xml:space="preserve">
<style type="text/css">
	.st0{fill-rule:evenodd;clip-rule:evenodd;fill:#6CC7B8;}
	.st1{fill-rule:evenodd;clip-rule:evenodd;fill:#006E61;}
	.st2{fill:#006E61;stroke:#006E61;stroke-width:1.6;stroke-miterlimit:22.9256;}
	.st3{fill:#FCFEFD;stroke:#FCFEFD;stroke-width:1.6;stroke-miterlimit:22.9256;}
	.st4{fill:#FCFEFD;stroke:#FCFEFD;stroke-width:2;stroke-miterlimit:22.9256;}
</style>
<sodipodi:namedview  bordercolor="#666666" borderopacity="1" gridtolerance="10" guidetolerance="10" id="namedview4207" inkscape:current-layer="logo-vUp" inkscape:cx="420.9194" inkscape:cy="342.64468" inkscape:pageopacity="0" inkscape:pageshadow="2" inkscape:window-height="705" inkscape:window-maximized="1" inkscape:window-width="1360" inkscape:window-x="-8" inkscape:window-y="-8" inkscape:zoom="0.78666667" objecttolerance="10" pagecolor="#ffffff" showgrid="false" units="in">
	</sodipodi:namedview>
<g id="logo-vUp">
	<circle id="bg" class="st0 vPulse" cx="300" cy="330" r="180"/>
	<path id="gV" class="st1 vChangeColor" d="M175.6,378.1c-7.3-17.8-55.1-137.1-55.1-149.6c-2.3,1.1-38.8,55.6-38.8,55.9l31.7-19
		c63.3,164.6,0,0,63.3,164.6c117.4-318.2,0,0,117.4-318.2c25,6.3-1.1-0.3,26.4,6.7c-2-26.6-4.3-52.1-7-78.5c-1,0-1,0-2,1
		c-3.9,4.1-53.1,55.6-53.1,55.9c19.4,10,0,0,19.4,10C175.6,378.1,184.3,354.4,175.6,378.1L175.6,378.1z"/>

		<path id="ted" class="st2 vOrbit" inkscape:connector-curvature="0" inkscape:transform-center-x="-148.68383" inkscape:transform-center-y="-73.623338"  d="
		M365.6,127.9l-0.4,1.2c-2-0.6-3.4-1.8-4.4-3.6c-1-1.8-1.1-3.7-0.5-5.8l6.2-19.7l1.3,0.4l-2.4,7.7l5.7,1.8l-0.4,1.2l-5.7-1.8
		l-3.4,10.9c-0.5,1.7-0.4,3.3,0.3,4.8C362.8,126.4,364,127.4,365.6,127.9z M377.3,134.6l-0.4-0.2c-2.5-1.1-4.3-3.1-5.3-5.9
		c-1-2.8-1-5.4,0.1-8c1.1-2.6,3-4.3,5.7-5.4c2.7-1,5.4-0.9,8.1,0.3c2.7,1.2,4.6,3.4,5.6,6.5l-17.9,6.9c1.1,2.2,2.5,3.6,4,4.3
		c1.6,0.7,3.2,1,4.8,0.8c1.6-0.2,3.1-0.7,4.4-1.6l-0.9,2.1C382.7,135.8,380,135.8,377.3,134.6L377.3,134.6z M384.7,116.5
		c-2.1-1-4.3-1-6.7-0.1c-2.4,0.9-4,2.5-4.9,4.6c-0.9,2.2-1.1,4.4-0.4,6.6l16.7-6.4C388.4,119,386.8,117.4,384.7,116.5L384.7,116.5z
		 M396.2,143.9l-0.3-0.2c-2.4-1.4-4-3.5-4.7-6.3c-0.7-2.8-0.4-5.5,1-7.9c1.4-2.4,3.4-4.1,6.2-4.8c2.8-0.8,5.4-0.4,8,1.1
		c2.6,1.5,4.2,3.7,4.9,6.7l-1.1,2c-0.1-1.6-0.6-3.1-1.4-4.5c-0.8-1.4-1.9-2.4-3.2-3.2c-2.1-1.2-4.4-1.5-6.8-0.8
		c-2.4,0.7-4.2,2.1-5.5,4.3c-1.2,2.2-1.5,4.5-0.8,7c0.7,2.5,2.1,4.3,4.1,5.5c1.3,0.8,2.8,1.1,4.3,1.1c1.6,0,3.1-0.4,4.6-1.1l-1.1,2
		C401.5,145.7,398.8,145.4,396.2,143.9L396.2,143.9z M407.3,149.8l-1.1-0.8l11.2-16.3l1.1,0.8l-2.3,3.3c2.9-1.6,5.8-1.4,8.7,0.7
		c2,1.4,3.2,3.3,3.6,5.7c0.4,2.4-0.1,4.5-1.5,6.5l-6.5,9.5l-1.1-0.8l6.5-9.5c1.1-1.7,1.6-3.5,1.3-5.6c-0.3-2-1.3-3.7-2.9-4.8
		c-1.6-1.2-3.5-1.6-5.6-1.2c-2.1,0.3-3.7,1.3-4.9,3L407.3,149.8z M431.4,169c-2.1-1.9-3.2-4.3-3.3-7.2c-0.1-2.9,0.7-5.4,2.5-7.5
		c1.8-2.1,4.1-3.2,7-3.4c2.9-0.2,5.3,0.7,7.5,2.6c2.1,1.9,3.3,4.3,3.5,7.2c0.2,2.9-0.6,5.4-2.5,7.5s-4.2,3.3-7,3.5
		c-2.8,0.2-5.3-0.6-7.4-2.5L431.4,169z M445,167.3c1.6-1.9,2.4-4.1,2.2-6.6c-0.1-2.5-1.1-4.6-2.9-6.3c-1.8-1.6-4-2.4-6.5-2.2
		c-2.5,0.2-4.6,1.2-6.2,3.1c-1.6,1.9-2.3,4.1-2.2,6.6c0.2,2.6,1.2,4.7,3,6.3c1.8,1.6,4,2.4,6.5,2.2
		C441.3,170.2,443.3,169.1,445,167.3L445,167.3z M448.2,183.2l-0.9,0.9c-1.5-1.5-2.2-3.2-2.3-5.3c-0.1-2,0.7-3.8,2.2-5.4l18-18.5
		l1,1l-18,18.5c-1.2,1.3-1.9,2.8-1.8,4.4C446.4,180.6,447,182,448.2,183.2L448.2,183.2z M454.8,192.6c-1.8-2.1-2.6-4.7-2.3-7.6
		c0.3-2.9,1.4-5.3,3.5-7.1c2.1-1.8,4.5-2.6,7.4-2.4c2.8,0.2,5.2,1.4,7.1,3.6c1.9,2.2,2.7,4.7,2.5,7.6c-0.2,2.9-1.4,5.2-3.5,7.1
		c-2.1,1.8-4.6,2.7-7.4,2.5c-2.8-0.1-5.2-1.3-7-3.5L454.8,192.6z M468.5,192.8c1.9-1.6,2.9-3.7,3.1-6.2c0.2-2.5-0.5-4.7-2.1-6.6
		c-1.6-1.9-3.7-2.9-6.2-3.1c-2.5-0.2-4.7,0.6-6.6,2.2c-1.8,1.6-2.9,3.7-3,6.3c-0.2,2.6,0.5,4.8,2.1,6.7c1.6,1.9,3.6,2.9,6.1,3.1
		C464.5,195.2,466.6,194.4,468.5,192.8z M490.8,207.5l0.8,1.2L477,218.9c-2.8,1.9-5.5,2.7-8.1,2.2c-2.6-0.4-4.8-1.9-6.5-4.4
		c-0.9-1.4-1.5-2.9-1.8-4.7c-0.3-1.7-0.1-3.3,0.4-4.8l1.6-1.1c-0.7,1.4-1,3.1-0.9,5c0.1,1.9,0.7,3.5,1.6,4.9
		c1.4,2.1,3.3,3.4,5.7,3.8c2.3,0.4,4.7-0.3,7.2-2l2.4-1.7c-1.8,0.3-3.5,0-5.2-0.9c-1.7-0.9-3.1-2-4.1-3.5c-1.6-2.4-2.2-5-1.6-7.9
		c0.5-2.9,1.9-5.1,4.2-6.7c2.3-1.6,4.9-2.2,7.7-1.6c2.8,0.5,5,2,6.6,4.4c1.1,1.6,1.7,3.3,1.8,5.2c0.1,1.9-0.2,3.7-1.2,5.3
		L490.8,207.5z M472.6,198.2c-2,1.4-3.3,3.4-3.7,5.9c-0.5,2.5,0,4.8,1.4,6.9c1.4,2.1,3.3,3.3,5.8,3.7c2.5,0.4,4.7-0.1,6.7-1.5
		c2-1.4,3.3-3.4,3.8-5.8c0.5-2.5,0-4.7-1.3-6.8c-1.4-2.1-3.3-3.3-5.8-3.8C476.9,196.3,474.7,196.8,472.6,198.2L472.6,198.2z
		 M496.2,216.7l-17.1,9.5l-0.7-1.2l17.1-9.5L496.2,216.7z M500,213.7c-0.4-0.7-0.3-1.3,0.4-1.7c0.7-0.4,1.2-0.2,1.6,0.6
		s0.3,1.3-0.4,1.7C501,214.7,500.4,214.5,500,213.7z M508,240.2l-17.6,8.7l-0.6-1.3l4.4-2.2c-1.8,0-3.5-0.5-5.1-1.6
		c-1.6-1.1-2.8-2.4-3.6-4.1c-1.2-2.6-1.4-5.3-0.5-8c0.9-2.7,2.6-4.7,5.2-6c2.5-1.3,5.1-1.4,7.8-0.4c2.7,1,4.7,2.7,5.9,5.3
		c0.8,1.7,1.1,3.5,1,5.5c-0.1,2-0.8,3.6-2,5l4.4-2.2L508,240.2z M490.7,227.1c-2.2,1.1-3.7,2.8-4.5,5.3c-0.8,2.4-0.7,4.7,0.4,7
		c1.1,2.2,2.8,3.8,5.2,4.5c2.4,0.8,4.6,0.6,6.8-0.4c2.2-1.1,3.7-2.8,4.6-5.2c0.8-2.4,0.7-4.7-0.3-6.9c-1.1-2.2-2.8-3.7-5.2-4.6
		C495.2,225.9,492.9,226,490.7,227.1z M499.2,278.6l-0.1-0.4c-0.7-2.7-0.2-5.3,1.3-7.9c1.5-2.5,3.6-4.1,6.3-4.8
		c2.7-0.7,5.2-0.3,7.7,1.2c2.4,1.5,4,3.7,4.7,6.7c0.7,2.9,0.2,5.8-1.6,8.5l-16.4-10.1c-1,2.2-1.3,4.2-0.9,5.9
		c0.4,1.7,1.2,3.2,2.3,4.3c1.1,1.2,2.4,2,3.9,2.6l-2.1,0.5C501.6,283.7,499.9,281.5,499.2,278.6L499.2,278.6z M517.8,273.4
		c-0.6-2.3-1.9-4.1-4.1-5.4c-2.2-1.3-4.4-1.7-6.6-1.1c-2.2,0.6-4,1.8-5.3,3.8l15.2,9.4C518.1,277.9,518.4,275.7,517.8,273.4
		L517.8,273.4z M540,321.2l-32.4,3.6l-0.2-1.4l4.7-0.5c-1.7-0.7-3.1-1.8-4.2-3.4c-1.1-1.6-1.8-3.2-2-5c-0.3-2.9,0.4-5.5,2.2-7.7
		s4.1-3.5,6.9-3.9c2.8-0.3,5.3,0.4,7.5,2.2c2.2,1.8,3.5,4.2,3.8,7.1c0.2,1.8-0.1,3.6-0.9,5.4c-0.8,1.8-1.9,3.2-3.4,4.1l17.7-2
		L540,321.2z M515.2,304.3c-2.4,0.3-4.4,1.4-6,3.3c-1.6,2-2.2,4.2-2,6.6c0.3,2.5,1.4,4.5,3.4,6.1c2,1.6,4.2,2.3,6.6,2
		c2.4-0.3,4.4-1.4,6-3.4c1.6-2,2.3-4.2,2-6.7c-0.3-2.5-1.4-4.5-3.4-6C519.8,304.7,517.6,304.1,515.2,304.3L515.2,304.3z
		 M506.8,340.2l0-0.4c0.1-2.8,1.2-5.2,3.4-7.2c2.1-2,4.6-2.9,7.3-2.8c2.7,0.1,5.1,1.2,7,3.4c1.9,2.1,2.9,4.7,2.7,7.7
		c-0.1,3-1.4,5.6-3.8,7.7l-13-14.3c-1.6,1.9-2.4,3.7-2.5,5.4c-0.1,1.8,0.3,3.4,1,4.8c0.7,1.4,1.8,2.6,3.1,3.6l-2.2-0.1
		C507.7,345.7,506.7,343.2,506.8,340.2L506.8,340.2z M526.1,340.4c0.1-2.3-0.7-4.4-2.4-6.3c-1.7-1.9-3.7-2.9-6-2.9
		c-2.3-0.1-4.4,0.6-6.2,2.1l12.1,13.3C525.1,344.8,526,342.8,526.1,340.4L526.1,340.4z M524.9,357.7c0.1-0.8-0.1-1.5-0.6-2.1
		c-0.4-0.6-1-1-1.8-1c-0.7-0.1-1.4,0.2-2.1,0.8c-0.7,0.6-1.3,1.4-1.8,2.2c-0.6,0.9-1.2,1.8-1.8,2.7c-0.6,0.9-1.4,1.6-2.4,2.2
		c-0.9,0.6-2,0.8-3.2,0.7c-1.7-0.1-3.1-0.9-4.2-2.3c-1.1-1.4-1.6-3-1.4-4.9c0.1-1.2,0.4-2.2,1-3.2c0.6-1,1.3-1.7,2.2-2.1l2.1,0.2
		c-2.5,0.9-3.9,2.6-4,5.1c-0.1,1.5,0.2,2.8,1.1,4c0.8,1.1,1.8,1.7,3,1.8c1.1,0.1,2.1-0.2,3-0.8c0.8-0.6,1.6-1.3,2.2-2.2
		c0.6-0.9,1.2-1.8,1.8-2.7c0.6-0.9,1.3-1.6,2.1-2.2c0.8-0.6,1.7-0.9,2.8-0.8c1,0.1,1.9,0.6,2.5,1.5s0.9,2,0.8,3.3
		c-0.1,1.3-0.7,2.4-1.8,3.3l-1.8-0.1C524,360.3,524.8,359.2,524.9,357.7L524.9,357.7z M524,372.2l-19.2-3.4l0.2-1.4l19.2,3.4
		L524,372.2z M528.8,372.4c0.1-0.8,0.6-1.2,1.4-1.1c0.8,0.1,1.1,0.6,0.9,1.5c-0.1,0.8-0.6,1.2-1.4,1.1
		C529,373.7,528.7,373.2,528.8,372.4L528.8,372.4z M519,397.2l-0.3,1.4l-17.3-4c-3.3-0.8-5.7-2.3-7.1-4.6c-1.5-2.3-1.9-4.9-1.2-7.9
		c0.4-1.6,1.1-3.1,2.2-4.5c1.1-1.4,2.3-2.4,3.7-2.9l1.9,0.5c-1.5,0.4-2.9,1.3-4.2,2.7c-1.3,1.4-2.1,2.9-2.5,4.6
		c-0.6,2.5-0.2,4.8,1.1,6.8s3.4,3.3,6.3,4l2.8,0.7c-1.4-1.1-2.3-2.6-2.9-4.5c-0.6-1.9-0.6-3.7-0.2-5.5c0.6-2.8,2.2-5,4.6-6.5
		s5-2,7.7-1.4c2.7,0.6,4.9,2.2,6.4,4.7c1.5,2.5,1.9,5.1,1.3,7.9c-0.4,1.9-1.3,3.5-2.6,4.9c-1.3,1.4-2.8,2.3-4.6,2.7L519,397.2z
		 M513.4,377.3c-2.4-0.6-4.7-0.2-6.8,1.2c-2.1,1.4-3.5,3.3-4,5.7c-0.5,2.4-0.1,4.7,1.2,6.8c1.3,2.1,3.2,3.5,5.6,4s4.7,0.2,6.8-1.1
		c2.1-1.3,3.5-3.2,4-5.6c0.5-2.4,0.1-4.7-1.2-6.9C517.7,379.2,515.8,377.9,513.4,377.3L513.4,377.3z M497.7,400.4l0.4-1.3l18.6,6
		l-0.4,1.3l-3.8-1.2c2.4,2.3,3,5.2,1.9,8.7c-0.7,2.4-2.2,4.1-4.3,5.2c-2.1,1.1-4.3,1.3-6.6,0.5l-10.8-3.5l0.4-1.3l10.8,3.5
		c1.9,0.6,3.8,0.5,5.6-0.4c1.8-0.9,3.1-2.3,3.7-4.3c0.6-1.9,0.4-3.9-0.5-5.8c-0.9-1.9-2.4-3.2-4.3-3.8L497.7,400.4z"/>
	<path id="uP" class="st3 vRise" d="M299.2,400h-2.1c-11.4,0-21.8-3.9-29-11.7c-8.3-7.8-12.4-17.5-12.4-29.1v-95.1h6.2v95.1
		c0,10.7,3.1,18.4,10.4,25.2c7.3,6.8,15.5,9.7,25.9,9.7c10.4,0,18.7-2.9,25.9-9.7c6.2-6.8,10.4-14.6,10.4-25.2v-95.1h6.2v95.1
		c0,11.7-4.1,21.4-12.4,29.1S310.6,400,299.2,400L299.2,400z M368.6,264.1h6.2c12.4,0,23.8,3.9,33.2,12.6
		c9.3,8.7,13.5,18.4,13.5,30.1c0,11.6-4.1,21.4-13.5,29.1c-10.4,8.7-20.7,12.6-32.1,12.6h-1v48.5h-6.2L368.6,264.1L368.6,264.1z
		 M374.9,343.7h1c11.4,0,19.7-3.9,28-10.7c8.3-7.8,11.4-16.5,11.4-26.2c0-9.7-3.1-18.4-11.4-26.2c-8.3-7.8-17.6-11.6-28-11.6h-1
		V343.7z M446.4,200h6.2v179.6h-6.2V200z M449.5,398.1c-4.1,0-6.2-1.9-6.2-4.9c0-3.9,2.1-5.8,6.2-5.8c4.1,0,6.2,1.9,6.2,5.8
		C455.7,396.1,453.6,398.1,449.5,398.1z"/>
	<path id="vector" class="st4 vFadeToRight" d="M212.7,442.5h1l-8,15l-7-15h1l7,13L212.7,442.5z M234.7,457.5h-1c-2,0-3-1-5-2c-1-2-2-4-2-6
		s1-4,2-5c2-2,3-2,6-2c2,0,4,1,5,2l-10,10c2,1,3,2,4,2s3,0,4-1s1-1,2-2v1C238.7,456.5,236.7,457.5,234.7,457.5z M233.7,443.5
		c-1,0-3,0-4,2c-2,1-2,2-2,4s0,3,2,5l9-10C237.7,443.5,235.7,443.5,233.7,443.5z M260.7,457.5L260.7,457.5c-2,0-4-1-5-2
		c-2-2-2-4-2-6s0-4,2-5c1-2,3-2,5-2c3,0,4,1,6,2v2c-1-1-2-2-3-3c-1,0-2,0-3,0s-3,0-4,2c-2,1-2,2-2,4s0,4,2,5c1,1,3,2,4,2s2,0,3-1
		c1,0,2-1,3-2v1C264.7,456.5,263.7,457.5,260.7,457.5z M285.7,456.5v1c-1,0-3-1-4-2s-1-2-1-4v-15h1v6h4v1h-4v8c0,2,0,3,1,3
		C283.7,455.5,284.7,456.5,285.7,456.5z M306.7,457.5c-3,0-4-1-6-3c-1-1-2-3-2-5s1-4,2-5c2-2,4-2,6-2s4,0,5,2c2,1,2,3,2,5s0,4-2,6
		C310.7,456.5,308.7,457.5,306.7,457.5L306.7,457.5z M312.7,449.5c0-2,0-3-2-4c-1-2-3-2-4-2c-2,0-4,0-5,2c-1,1-2,2-2,4s1,4,2,5
		s3,2,5,2c1,0,3-1,4-2C312.7,453.5,312.7,451.5,312.7,449.5z M336.7,444.5c-1-1-2-1-3-1s-2,0-3,1s-1,2-1,3v9h-2v-14h2v2c0-1,0-1,1-2
		c1,0,2,0,3,0s2,0,3,1V444.5z M373.7,442.5h1v14h-1v-2c-1,2-3,3-6,3c-2,0-3-1-4-2c-2-1-2-3-2-5v-8h1v8c0,2,0,3,1,4s3,2,4,2
		c2,0,3-1,4-2s2-2,2-4V442.5z M388.7,463.5v-21h1v4c1-2,2-3,3-3c1-1,3-1,4-1c2,0,4,0,5,2c2,1,3,3,3,5s-1,4-3,6c-1,1-3,2-5,2
		c-1,0-3-1-4-1c-1-1-2-2-3-3v10H388.7z M389.7,449.5c0,2,1,4,2,5c2,1,3,2,5,2s3-1,5-2c1-1,2-3,2-5s-1-3-2-4c-2-2-3-2-5-2s-3,0-5,2
		C390.7,446.5,389.7,447.5,389.7,449.5z"/>
</g>
</svg>
