<?xml version="1.0" encoding="UTF-8" standalone="no"?>
<!-- Created with Inkscape (http://www.inkscape.org/) -->

<svg
   width="600"
   height="600"
   viewBox="0 0 300 300"
   version="1.1"
   id="svg238"
   inkscape:export-filename="logo.svg"
   inkscape:export-xdpi="96"
   inkscape:export-ydpi="96"
   xmlns:inkscape="http://www.inkscape.org/namespaces/inkscape"
   xmlns:sodipodi="http://sodipodi.sourceforge.net/DTD/sodipodi-0.dtd"
   xmlns="http://www.w3.org/2000/svg"
   xmlns:svg="http://www.w3.org/2000/svg">
  <sodipodi:namedview
     id="namedview240"
     pagecolor="#ffffff"
     bordercolor="#000000"
     borderopacity="0.25"
     inkscape:showpageshadow="2"
     inkscape:pageopacity="0.0"
     inkscape:pagecheckerboard="true"
     inkscape:deskcolor="#d1d1d1"
     inkscape:document-units="px"
     showgrid="false"
     inkscape:zoom="0.46769781"
     inkscape:cx="397.69269"
     inkscape:cy="391.27829"
     inkscape:window-width="1366"
     inkscape:window-height="705"
     inkscape:window-x="-8"
     inkscape:window-y="-8"
     inkscape:window-maximized="1"
     inkscape:current-layer="layer1" />
  <defs
     id="defs235" />
  <g
     inkscape:label="Camada 1"
     inkscape:groupmode="layer"
     id="layer1">
    <ellipse
       id="bg"
       class="st0 vPulse"
       cx="142.60895"
       cy="185.10638"
       style="clip-rule:evenodd;fill:#6cc7b8;fill-rule:evenodd;stroke-width:0.64574"
       rx="117.58868"
       ry="114.8936" />
    <path
       id="gV"
       class="st1 vChangeColor"
       d="M 61.342105,215.80848 C 56.573226,204.44679 25.346909,128.29787 25.346909,120.31913 23.844391,121.02127 0,155.8085 0,155.99998 l 20.708692,-12.12766 c 41.352005,105.06381 0,0 41.352005,105.06381 76.693933,-203.106347 0,0 76.693933,-203.106347 16.33179,4.021276 -0.71859,-0.191478 17.24634,4.276597 C 154.69446,33.127657 153.19192,16.851063 151.4281,0 c -0.65327,0 -0.65327,0 -1.30656,0.638299 -2.54774,2.61702 -34.68865,35.489358 -34.68865,35.680847 12.67346,6.382978 0,0 12.67346,6.382978 C 61.342105,215.80848 67.025544,200.68081 61.342105,215.80848 Z"
       style="clip-rule:evenodd;fill:#006e61;fill-rule:evenodd;stroke-width:0.64574" />
    <path
       id="ted"
       class="st2 vOrbit"
       inkscape:connector-curvature="0"
       inkscape:transform-center-x="-367.10834"
       inkscape:transform-center-y="-177.61367"
       d="m 185.46348,56.106378 -0.26129,0.765957 c -1.30656,-0.382979 -2.22114,-1.148936 -2.87441,-2.297872 -0.65326,-1.148936 -0.71859,-2.3617 -0.32663,-3.702126 l 4.05028,-12.574468 0.84923,0.255318 -1.56785,4.914894 3.72366,1.148936 -0.2613,0.765958 -3.72366,-1.148936 -2.2211,6.957445 c -0.32664,1.085107 -0.26133,2.106383 0.19604,3.06383 0.58794,0.893618 1.37187,1.531915 2.4171,1.851064 z m 7.64327,4.276594 -0.26133,-0.127667 c -1.63316,-0.702129 -2.80905,-1.978725 -3.46232,-3.765958 -0.65327,-1.787233 -0.65327,-3.446808 0.0654,-5.106384 0.71859,-1.659572 1.95981,-2.744678 3.72362,-3.446807 1.76384,-0.638297 3.52767,-0.574469 5.29151,0.191501 1.76381,0.765957 3.00504,2.170214 3.65832,4.148937 l -11.69356,4.404254 c 0.71861,1.404255 1.63318,2.297872 2.61309,2.744681 1.04524,0.446809 2.09046,0.638299 3.1357,0.510639 1.04522,-0.127669 2.02515,-0.446809 2.87438,-1.021276 l -0.58793,1.340425 c -1.82915,0.893615 -3.593,0.893615 -5.35681,0.127668 z m 4.83419,-11.553189 c -1.37186,-0.638297 -2.80907,-0.638297 -4.37692,-0.06384 -1.56785,0.574467 -2.61308,1.595744 -3.20099,2.936169 -0.58797,1.404254 -0.71862,2.808511 -0.26133,4.212766 l 10.90962,-4.085106 c -0.65328,-1.404256 -1.6985,-2.425532 -3.07038,-3.000001 z m 7.51262,17.489359 -0.19604,-0.127667 c -1.56785,-0.893618 -2.6131,-2.234044 -3.07039,-4.021276 -0.45728,-1.787236 -0.26132,-3.51064 0.65327,-5.042555 0.91457,-1.531914 2.22112,-2.61702 4.05027,-3.063829 1.82916,-0.510637 3.52766,-0.255318 5.22617,0.702128 1.69851,0.957447 2.74373,2.361701 3.20103,4.276595 l -0.7186,1.276596 c -0.0654,-1.021276 -0.39196,-1.978722 -0.91458,-2.872341 -0.52262,-0.893617 -1.24122,-1.531914 -2.09048,-2.042553 -1.37185,-0.765957 -2.87438,-0.957446 -4.44221,-0.510637 -1.56785,0.446808 -2.74374,1.340426 -3.59301,2.74468 -0.78392,1.404255 -0.9799,2.872341 -0.52261,4.468084 0.45728,1.595746 1.37188,2.744682 2.67839,3.510639 0.84927,0.510637 1.82918,0.702127 2.80908,0.702127 1.04525,0 2.02513,-0.255318 3.00506,-0.702127 l -0.71862,1.276594 c -1.89448,0.574469 -3.65829,0.382979 -5.35681,-0.574467 z m 7.2513,3.765958 -0.71862,-0.510639 7.31666,-10.404253 0.71859,0.510639 -1.50252,2.106383 c 1.89448,-1.021279 3.78896,-0.893619 5.68345,0.446807 1.30653,0.893618 2.09046,2.106383 2.35177,3.638298 0.26133,1.531914 -0.0654,2.87234 -0.9799,4.148936 l -4.24626,6.063828 -0.71861,-0.510639 4.24627,-6.063827 c 0.7186,-1.085108 1.04523,-2.234044 0.84924,-3.57447 -0.19604,-1.276594 -0.84924,-2.3617 -1.89447,-3.063829 -1.04523,-0.765957 -2.28646,-1.021276 -3.6583,-0.765957 -1.37189,0.191477 -2.41711,0.829789 -3.20104,1.914893 z m 15.74381,12.255319 c -1.37187,-1.212768 -2.09046,-2.744683 -2.15579,-4.595745 -0.0654,-1.851065 0.4573,-3.446808 1.63319,-4.787234 1.17589,-1.340424 2.6784,-2.042553 4.57288,-2.170214 1.89448,-0.127668 3.46233,0.44681 4.89954,1.659575 1.37185,1.212766 2.15578,2.74468 2.28645,4.595745 0.1306,1.851064 -0.39196,3.446808 -1.63319,4.787234 -1.24122,1.340425 -2.74373,2.106382 -4.57288,2.234042 -1.82917,0.127669 -3.46236,-0.382978 -4.83421,-1.595745 z m 8.88449,-1.085108 c 1.04522,-1.212765 1.56786,-2.617022 1.43718,-4.212765 -0.0654,-1.595744 -0.71859,-2.93617 -1.89448,-4.021276 -1.17588,-1.021276 -2.61307,-1.531916 -4.24626,-1.404254 -1.63316,0.127667 -3.00506,0.765957 -4.05028,1.978721 -1.04521,1.212766 -1.50252,2.617022 -1.43717,4.212767 0.13061,1.659574 0.78392,2.999999 1.95981,4.021276 1.17588,1.021276 2.61307,1.531914 4.24624,1.404254 1.56785,-0.127668 2.8744,-0.829787 3.98496,-1.978723 z m 2.09044,10.14894 -0.58792,0.57446 c -0.97992,-0.95744 -1.43719,-2.04255 -1.50252,-3.38298 -0.0654,-1.27659 0.4573,-2.42553 1.43718,-3.4468 l 11.75888,-11.808512 0.65326,0.638297 -11.75888,11.808515 c -0.78392,0.82978 -1.24117,1.78723 -1.17588,2.8085 0,1.14894 0.39196,2.04256 1.17588,2.80852 z m 4.3116,5.99999 c -1.1759,-1.34043 -1.6985,-2.99999 -1.50252,-4.85106 0.19604,-1.85106 0.91458,-3.38298 2.28644,-4.53191 1.37188,-1.14894 2.93973,-1.65958 4.83421,-1.53192 1.82915,0.12767 3.397,0.89362 4.63821,2.29787 1.24122,1.40426 1.76384,3 1.63318,4.85107 -0.13061,1.85106 -0.91457,3.31915 -2.28644,4.53191 -1.37188,1.14894 -3.00503,1.7234 -4.83421,1.59575 -1.82914,-0.0638 -3.397,-0.82979 -4.57289,-2.23404 z m 8.94982,0.12767 c 1.24119,-1.02128 1.89448,-2.3617 2.02513,-3.95745 0.1306,-1.59574 -0.32665,-2.99999 -1.37187,-4.21276 -1.04522,-1.21277 -2.4171,-1.85106 -4.05028,-1.97872 -1.63319,-0.12767 -3.07038,0.38298 -4.3116,1.40425 -1.17587,1.02128 -1.89446,2.3617 -1.95979,4.02128 -0.13063,1.65957 0.32663,3.06383 1.37186,4.27659 1.04523,1.21277 2.35179,1.85106 3.98496,1.97873 1.69849,0 3.07037,-0.51065 4.31159,-1.53192 z m 14.56791,9.382989 0.52263,0.76595 -9.53777,6.51064 c -1.82914,1.21275 -3.59296,1.72339 -5.29147,1.40425 -1.69851,-0.25531 -3.1357,-1.21277 -4.24626,-2.80852 -0.58795,-0.8936 -0.97991,-1.85105 -1.17588,-2.99999 -0.19605,-1.08511 -0.0654,-2.10638 0.2613,-3.06383 l 1.04522,-0.70213 c -0.45727,0.89363 -0.65326,1.97873 -0.58793,3.1915 0.0654,1.21274 0.45729,2.23404 1.04523,3.12764 0.91459,1.34044 2.1558,2.17023 3.72365,2.42554 1.50252,0.25531 3.07037,-0.19156 4.70354,-1.2766 l 1.56785,-1.0851 c -1.17589,0.19154 -2.28644,0 -3.39702,-0.57446 -1.11055,-0.57448 -2.02511,-1.2766 -2.6784,-2.23404 -1.04523,-1.53192 -1.43719,-3.1915 -1.04523,-5.04255 0.32662,-1.85107 1.24122,-3.25533 2.74374,-4.27661 1.50252,-1.021269 3.20102,-1.404249 5.03019,-1.021269 1.82914,0.31915 3.26635,1.276589 4.31157,2.808499 0.71859,1.02129 1.11055,2.1064 1.17589,3.31916 0.0654,1.21274 -0.13062,2.36168 -0.78392,3.38297 z m -11.88951,-5.93619 c -1.30655,0.89363 -2.1558,2.17021 -2.4171,3.76595 -0.32663,1.59576 0,3.06384 0.91459,4.40427 0.91456,1.34042 2.15577,2.10638 3.78896,2.36171 1.63317,0.25531 3.07036,-0.064 4.37691,-0.95745 1.30653,-0.89363 2.15577,-2.17021 2.4824,-3.70213 0.32666,-1.59574 0,-3 -0.84921,-4.34043 -0.9146,-1.34043 -2.15582,-2.10637 -3.78899,-2.42553 -1.69849,-0.319139 -3.1357,0 -4.50756,0.89361 z m 15.41717,11.80851 -11.17092,6.06382 -0.45728,-0.76596 11.17093,-6.06381 z m 2.48243,-1.91489 c -0.2613,-0.44682 -0.19604,-0.8298 0.2613,-1.0851 0.4573,-0.25532 0.78393,-0.12762 1.04526,0.38298 0.26129,0.51064 0.19604,0.82978 -0.26133,1.0851 -0.39197,0.25533 -0.78393,0.12762 -1.04523,-0.38298 z m 5.22617,16.91489 -11.49756,5.55321 -0.39196,-0.82979 2.87439,-1.40428 c -1.17589,0 -2.28645,-0.31914 -3.33168,-1.02126 -1.04523,-0.70212 -1.82915,-1.53192 -2.35179,-2.61702 -0.78392,-1.65959 -0.91455,-3.38297 -0.32663,-5.10639 0.58797,-1.72339 1.69852,-3 3.39701,-3.82979 1.63318,-0.8298 3.33169,-0.8936 5.09551,-0.25531 1.76384,0.63829 3.07038,1.72339 3.85431,3.38298 0.5226,1.0851 0.71859,2.23404 0.65327,3.51064 -0.0654,1.2766 -0.52263,2.29787 -1.30656,3.19149 l 2.8744,-1.40427 z m -11.30158,-8.3617 c -1.4372,0.70213 -2.41709,1.78723 -2.93972,3.38299 -0.52262,1.5319 -0.4573,2.99998 0.26129,4.46807 0.71862,1.40427 1.82918,2.42554 3.39703,2.87234 1.56785,0.51066 3.00504,0.38298 4.44223,-0.2553 1.43721,-0.70214 2.4171,-1.78725 3.00505,-3.31917 0.5226,-1.53191 0.4573,-3 -0.19604,-4.40424 -0.71859,-1.40427 -1.82915,-2.36171 -3.397,-2.93619 -1.63317,-0.57445 -3.13569,-0.51062 -4.57289,0.19155 z m 5.55279,32.87234 -0.0654,-0.25531 c -0.4573,-1.72342 -0.13061,-3.38298 0.84924,-5.04256 0.9799,-1.59575 2.35177,-2.61701 4.11561,-3.06383 1.76382,-0.44681 3.397,-0.19154 5.03018,0.76596 1.56784,0.95743 2.61308,2.36171 3.07036,4.27659 0.45729,1.85107 0.13061,3.70213 -1.04522,5.42555 l -10.71364,-6.44683 c -0.65327,1.40426 -0.84925,2.68084 -0.58794,3.76597 0.2613,1.0851 0.78392,2.04254 1.50252,2.74466 0.71859,0.76596 1.56786,1.2766 2.54774,1.65958 l -1.37185,0.31915 c -1.76384,-0.8936 -2.87439,-2.29787 -3.33169,-4.14893 z m 12.15083,-3.31915 c -0.39196,-1.46808 -1.2412,-2.61701 -2.67841,-3.4468 -1.43719,-0.82979 -2.87437,-1.0851 -4.31157,-0.70212 -1.43719,0.38298 -2.61308,1.14894 -3.46234,2.42552 l 9.92971,6.00001 c 0.71861,-1.40427 0.91457,-2.80852 0.52261,-4.27661 z m 14.5026,30.51063 -21.16596,2.29788 -0.13061,-0.89362 3.07036,-0.31916 c -1.11055,-0.4468 -2.02514,-1.14892 -2.74373,-2.1702 -0.7186,-1.02126 -1.17589,-2.04256 -1.30655,-3.19149 -0.19605,-1.85106 0.26132,-3.51064 1.43721,-4.91489 1.1759,-1.40425 2.67841,-2.23404 4.50756,-2.48936 1.82915,-0.19154 3.46233,0.25532 4.89954,1.40426 1.43718,1.14893 2.28644,2.68085 2.48241,4.53191 0.13061,1.14894 -0.0654,2.29787 -0.58793,3.44681 -0.52263,1.14893 -1.24122,2.04256 -2.22114,2.61702 l 11.56289,-1.27658 z m -16.20108,-10.78723 c -1.56785,0.19155 -2.87441,0.89363 -3.91963,2.1064 -1.04525,1.27658 -1.43721,2.68084 -1.30654,4.21276 0.19603,1.59575 0.91457,2.87233 2.22111,3.89363 1.30654,1.02126 2.74372,1.46808 4.31158,1.27658 1.56785,-0.19156 2.87439,-0.8936 3.91962,-2.17022 1.04525,-1.2766 1.50254,-2.68085 1.30655,-4.27659 -0.19605,-1.59575 -0.91459,-2.87233 -2.22111,-3.82979 -1.30655,-0.95744 -2.74375,-1.34042 -4.31158,-1.21277 z m -5.48748,22.91489 v -0.25532 c 0.0654,-1.78722 0.78392,-3.31913 2.22111,-4.59573 1.37189,-1.27661 3.00503,-1.85106 4.76888,-1.78724 1.76382,0.064 3.33167,0.76596 4.57287,2.17021 1.24123,1.34044 1.89449,3 1.76386,4.91489 -0.0654,1.91489 -0.91459,3.57448 -2.48244,4.91489 l -8.49251,-9.12765 c -1.04524,1.21276 -1.56785,2.3617 -1.63318,3.44681 -0.0654,1.14892 0.19606,2.17022 0.65327,3.06382 0.45728,0.89363 1.17588,1.65958 2.02513,2.29787 l -1.43718,-0.064 c -1.37187,-1.46808 -2.02514,-3.06383 -1.95981,-4.97873 z m 12.60813,0.12762 c 0.0652,-1.46809 -0.4573,-2.80849 -1.56785,-4.02127 -1.11058,-1.21276 -2.41712,-1.85106 -3.91963,-1.85106 -1.50255,-0.064 -2.87439,0.38298 -4.05029,1.34042 l 7.90459,8.48936 c 0.97989,-1.14893 1.56784,-2.42553 1.63318,-3.95745 z m -0.78393,11.04257 c 0.0652,-0.51065 -0.0654,-0.95746 -0.39196,-1.34044 -0.26134,-0.38298 -0.65329,-0.63828 -1.17589,-0.63828 -0.45729,-0.064 -0.9146,0.12762 -1.37188,0.51062 -0.45729,0.38298 -0.84925,0.89362 -1.17588,1.40426 -0.39196,0.57445 -0.78393,1.14893 -1.17589,1.72339 -0.39196,0.57448 -0.9146,1.02129 -1.56785,1.40427 -0.58793,0.38298 -1.30655,0.51062 -2.09047,0.44679 -1.11055,-0.064 -2.02513,-0.57446 -2.74374,-1.46808 -0.7186,-0.8936 -1.04522,-1.9149 -0.91457,-3.12765 0.0654,-0.76596 0.26131,-1.40426 0.65328,-2.04254 0.39196,-0.63832 0.84924,-1.0851 1.43718,-1.34044 l 1.37187,0.12762 c -1.63318,0.57448 -2.54776,1.65958 -2.61307,3.25532 -0.0654,0.95744 0.13062,1.78723 0.71859,2.55319 0.52261,0.70212 1.17589,1.0851 1.95982,1.14893 0.71859,0.064 1.37185,-0.12762 1.95981,-0.51065 0.52259,-0.38298 1.04523,-0.82976 1.43719,-1.40424 0.39196,-0.57446 0.78392,-1.14893 1.17589,-1.72339 0.39196,-0.57448 0.84924,-1.02129 1.37187,-1.40427 0.5226,-0.38298 1.11056,-0.57445 1.82915,-0.51062 0.65325,0.064 1.24122,0.38297 1.63318,0.95743 0.39196,0.57448 0.58793,1.2766 0.5226,2.10639 -0.0652,0.82977 -0.45727,1.53192 -1.17588,2.10638 l -1.17589,-0.064 c 0.91458,-0.51062 1.43721,-1.21276 1.50254,-2.17019 z m -0.58796,9.25531 -12.54279,-2.17023 0.13062,-0.89362 12.54279,2.17023 z m 3.1357,0.12763 c 0.0654,-0.51063 0.39196,-0.76596 0.91459,-0.70213 0.5226,0.064 0.7186,0.38298 0.58793,0.95746 -0.0654,0.51062 -0.39196,0.76596 -0.91456,0.70212 -0.4573,-0.12762 -0.65329,-0.44681 -0.58796,-0.95745 z m -6.40205,15.82979 -0.19605,0.89362 -11.30158,-2.5532 c -2.15579,-0.51063 -3.72365,-1.46809 -4.63821,-2.93617 -0.97992,-1.46808 -1.24122,-3.12766 -0.78393,-5.04255 0.26131,-1.02128 0.7186,-1.97874 1.4372,-2.87234 0.7186,-0.89362 1.50252,-1.5319 2.41709,-1.85108 l 1.24123,0.31918 c -0.97993,0.2553 -1.89451,0.82976 -2.74374,1.72338 -0.84926,0.89362 -1.37188,1.85106 -1.63318,2.93616 -0.39196,1.59576 -0.13061,3.06383 0.7186,4.34045 0.84925,1.2766 2.22111,2.10638 4.11559,2.55317 l 1.82917,0.44682 c -0.91459,-0.70213 -1.50251,-1.65956 -1.89447,-2.87233 -0.39197,-1.21278 -0.39197,-2.36171 -0.13063,-3.51064 0.39197,-1.78723 1.43719,-3.19151 3.00504,-4.14893 1.56786,-0.95746 3.26635,-1.27661 5.03018,-0.89363 1.76384,0.38298 3.20103,1.40425 4.18094,2.99999 0.9799,1.59575 1.24122,3.25533 0.84926,5.04257 -0.26132,1.21276 -0.84926,2.23403 -1.69851,3.12766 -0.84925,0.89362 -1.82916,1.46807 -3.00503,1.72339 z m -3.6583,-12.70214 c -1.56785,-0.38297 -3.07037,-0.12762 -4.44224,0.76596 -1.37187,0.89362 -2.28645,2.1064 -2.61307,3.63831 -0.32665,1.53192 -0.0654,3 0.78391,4.34042 0.84925,1.34043 2.09045,2.23403 3.6583,2.5532 1.56785,0.31915 3.07038,0.12762 4.44225,-0.70215 1.37187,-0.82977 2.28644,-2.04253 2.61307,-3.57445 0.32666,-1.53192 0.0654,-3 -0.78392,-4.40427 -0.84924,-1.40424 -2.09045,-2.23404 -3.6583,-2.61702 z m -10.25635,14.7447 0.26129,-0.8298 12.15084,3.82979 -0.2613,0.8298 -2.48245,-0.76596 c 1.56785,1.46808 1.95981,3.31914 1.24123,5.55318 -0.4573,1.53191 -1.43718,2.61701 -2.80907,3.31913 -1.37186,0.70216 -2.80907,0.8298 -4.31159,0.31918 l -7.05531,-2.23406 0.26132,-0.82977 7.05532,2.23403 c 1.24119,0.38298 2.48242,0.31914 3.65831,-0.25532 1.17587,-0.57446 2.02513,-1.46809 2.41709,-2.74467 0.39196,-1.21277 0.2613,-2.48938 -0.32662,-3.70214 -0.58796,-1.21278 -1.56786,-2.04254 -2.80908,-2.42552 z"
       style="fill:#006e61;stroke:#006e61;stroke-width:1.03318;stroke-miterlimit:22.9256" />
    <path
       id="uP"
       class="st3 vRise"
       d="m 142.08632,229.78719 h -1.37187 c -7.44729,0 -14.24128,-2.48935 -18.94482,-7.46807 -5.42216,-4.97872 -8.10058,-11.17022 -8.10058,-18.57448 v -60.7021 h 4.05028 v 60.7021 c 0,6.82981 2.02514,11.7447 6.79403,16.08511 4.76889,4.34043 10.12568,6.19149 16.91971,6.19149 6.79399,0 12.21614,-1.85106 16.91968,-6.19149 4.05029,-4.34041 6.79402,-9.31914 6.79402,-16.08511 v -60.7021 h 4.05028 v 60.7021 c 0,7.4681 -2.67843,13.65959 -8.10056,18.57448 -5.42215,4.91488 -11.56287,7.46807 -19.01017,7.46807 z m 45.33698,-86.74465 h 4.05028 c 8.10054,0 15.54783,2.48935 21.68856,8.04255 6.07542,5.55317 8.81917,11.74467 8.81917,19.21277 0,7.40424 -2.67841,13.65956 -8.81917,18.57445 -6.794,5.55321 -13.52269,8.04256 -20.96997,8.04256 h -0.65326 v 30.95743 h -4.05029 z m 4.11561,50.8085 h 0.65326 c 7.44728,0 12.86943,-2.48936 18.29155,-6.82979 5.42215,-4.97872 7.44731,-10.5319 7.44731,-16.72339 0,-6.19149 -2.02516,-11.7447 -7.44731,-16.72342 -5.42212,-4.97873 -11.49753,-7.40424 -18.29155,-7.40424 h -0.65326 z m 46.70881,-91.72339 h 4.05029 v 114.63827 h -4.05029 z m 2.02514,126.44677 c -2.6784,0 -4.05026,-1.21274 -4.05026,-3.12764 0,-2.48937 1.37186,-3.70215 4.05026,-3.70215 2.67841,0 4.05028,1.21278 4.05028,3.70215 0,1.85106 -1.37187,3.12764 -4.05028,3.12764 z"
       style="fill:#fcfefd;stroke:#fcfefd;stroke-width:1.03318;stroke-miterlimit:22.9256" />
    <path
       id="vector"
       class="st4 vFadeToRight"
       d="m 85.578434,256.91485 h 0.65326 l -5.22615,9.57446 -4.572906,-9.57446 h 0.653287 l 4.572889,8.29789 z m 14.37194,9.57446 h -0.65326 c -1.30656,0 -1.95981,-0.63829 -3.26636,-1.27657 -0.65327,-1.27661 -1.30652,-2.55322 -1.30652,-3.82979 0,-1.27661 0.65325,-2.55322 1.30652,-3.1915 1.30655,-1.2766 1.9598,-1.2766 3.91962,-1.2766 1.306546,0 2.613096,0.6383 3.266356,1.2766 l -6.532686,6.38297 c 1.30651,0.63832 1.9598,1.2766 2.61307,1.2766 0.65326,0 1.959806,0 2.613066,-0.63828 0.65329,-0.63832 0.65329,-0.63832 1.30655,-1.27661 v 0.63829 c -0.65326,1.2766 -1.95981,1.91489 -3.266356,1.91489 z m -0.65326,-8.93616 c -0.65327,0 -1.95981,0 -2.61307,1.27658 -1.30656,0.63832 -1.30656,1.27661 -1.30656,2.55322 0,1.27657 0,1.91489 1.30656,3.19147 l 5.879426,-6.38297 c -0.65329,-0.6383 -1.95981,-0.6383 -3.266356,-0.6383 z m 17.638296,8.93616 v 0 c -1.30656,0 -2.61307,-0.63829 -3.26636,-1.27657 -1.30653,-1.27661 -1.30653,-2.55322 -1.30653,-3.82979 0,-1.27661 0,-2.55322 1.30653,-3.1915 0.65329,-1.2766 1.9598,-1.2766 3.26636,-1.2766 1.95981,0 2.61307,0.6383 3.91963,1.2766 v 1.2766 c -0.65327,-0.63832 -1.30656,-1.2766 -1.95982,-1.9149 -0.65327,0 -1.30655,0 -1.95981,0 -0.65326,0 -1.95981,0 -2.61307,1.27658 -1.30656,0.63832 -1.30656,1.27661 -1.30656,2.55322 0,1.27657 0,2.55318 1.30656,3.19147 0.65326,0.63832 1.95981,1.2766 2.61307,1.2766 0.65326,0 1.30654,0 1.95981,-0.63828 0.65326,0 1.30655,-0.63832 1.95982,-1.27661 v 0.63829 c -1.30656,1.2766 -1.95982,1.91489 -3.91963,1.91489 z m 16.33175,-0.63829 v 0.63829 c -0.65325,0 -1.95981,-0.63829 -2.61307,-1.27657 -0.65326,-0.63832 -0.65326,-1.27661 -0.65326,-2.55322 v -9.57446 h 0.65326 v 3.82979 h 2.61307 v 0.6383 h -2.61307 v 5.10637 c 0,1.27661 0,1.9149 0.65326,1.9149 0.65329,0.63832 1.30656,1.2766 1.95981,1.2766 z m 13.71868,0.63829 c -1.9598,0 -2.61307,-0.63829 -3.91961,-1.91489 -0.65327,-0.63829 -1.30654,-1.9149 -1.30654,-3.19147 0,-1.27661 0.65327,-2.55322 1.30654,-3.1915 1.30654,-1.2766 2.61309,-1.2766 3.91961,-1.2766 1.30655,0 2.6131,0 3.26638,1.2766 1.30653,0.63828 1.30653,1.91489 1.30653,3.1915 0,1.27657 0,2.55318 -1.30653,3.82979 -0.65328,0.63828 -1.95983,1.27657 -3.26638,1.27657 z m 3.91963,-5.10636 c 0,-1.27661 0,-1.9149 -1.30653,-2.55322 -0.65328,-1.27658 -1.95981,-1.27658 -2.6131,-1.27658 -1.30652,0 -2.61307,0 -3.26633,1.27658 -0.65328,0.63832 -1.30655,1.27661 -1.30655,2.55322 0,1.27657 0.65327,2.55318 1.30655,3.19147 0.65326,0.63832 1.95981,1.2766 3.26633,1.2766 0.65329,0 1.95982,-0.63828 2.6131,-1.2766 1.30653,-0.63829 1.30653,-1.9149 1.30653,-3.19147 z m 15.67849,-3.1915 c -0.65326,-0.6383 -1.30652,-0.6383 -1.95981,-0.6383 -0.65326,0 -1.30653,0 -1.95981,0.6383 -0.65328,0.63828 -0.65328,1.2766 -0.65328,1.91489 v 5.74468 h -1.30653 v -8.93617 h 1.30653 v 1.2766 c 0,-0.6383 0,-0.6383 0.65328,-1.2766 0.65328,0 1.30655,0 1.95981,0 0.65329,0 1.30655,0 1.95981,0.6383 z m 24.17103,-1.2766 h 0.65325 v 8.93617 h -0.65325 v -1.2766 c -0.65329,1.2766 -1.95982,1.91489 -3.91963,1.91489 -1.30655,0 -1.95982,-0.63829 -2.6131,-1.27657 -1.30652,-0.63832 -1.30652,-1.9149 -1.30652,-3.1915 v -5.10639 h 0.65326 v 5.10639 c 0,1.2766 0,1.91489 0.65326,2.55318 0.65328,0.63832 1.95981,1.2766 2.6131,1.2766 1.30653,0 1.95981,-0.63828 2.61307,-1.2766 0.65327,-0.63829 1.30656,-1.27658 1.30656,-2.55318 z m 9.79905,13.40425 v -13.40425 h 0.65326 v 2.5532 c 0.65326,-1.2766 1.30656,-1.9149 1.95981,-1.9149 0.65326,-0.6383 1.95982,-0.6383 2.61307,-0.6383 1.30655,0 2.61311,0 3.26636,1.2766 1.30656,0.63828 1.95982,1.91489 1.95982,3.1915 0,1.27657 -0.65326,2.55318 -1.95982,3.82979 -0.65325,0.63828 -1.95981,1.27657 -3.26636,1.27657 -0.65325,0 -1.95981,-0.63829 -2.61307,-0.63829 -0.65325,-0.63828 -1.30655,-1.2766 -1.95981,-1.91489 v 6.38297 z m 0.65326,-8.93615 c 0,1.27657 0.65326,2.55318 1.30656,3.19147 1.30651,0.63832 1.9598,1.2766 3.26632,1.2766 1.30655,0 1.95982,-0.63828 3.26636,-1.2766 0.65326,-0.63829 1.30656,-1.9149 1.30656,-3.19147 0,-1.27661 -0.6533,-1.9149 -1.30656,-2.55322 -1.30654,-1.27658 -1.95981,-1.27658 -3.26636,-1.27658 -1.30652,0 -1.95981,0 -3.26632,1.27658 -0.6533,0.63832 -1.30656,1.27661 -1.30656,2.55322 z"
       style="fill:#fcfefd;stroke:#fcfefd;stroke-width:1.29149;stroke-miterlimit:22.9256" />
  </g>
</svg>
